<svg width="1024" height="1024" viewBox="0 0 1024 1024" fill="none" xmlns="http://www.w3.org/2000/svg">
<rect width="1024" height="1024" fill="#FFA000"/>
<path d="M668.702 160.852L807.554 299.575L813.418 305.435V829.002C813.418 851.093 795.509 869.002 773.418 869.002H251C228.909 869.002 211 851.093 211 829.002V195C211 172.909 228.909 155 251 155H662.846L668.702 160.852ZM251 829.002H773.418V333.724H674.567C652.476 333.724 634.567 315.815 634.567 293.724V195H251V829.002ZM680.935 756.668H343.483V716.668H680.935V756.668ZM680.935 592.38H343.483V552.38H680.935V592.38ZM680.935 419.667H343.483V379.667H680.935V419.667ZM674.567 293.724H745.104L674.567 223.252V293.724Z" fill="white"/>
</svg>

